<svg height="512pt" viewBox="-4 0 512 512.00065" width="512pt" xmlns="http://www.w3.org/2000/svg"><path d="m475.894531 83.761719c-2.617187-8.214844-7.289062-14.644531-13.101562-19.253907-3.589844-2.851562-5.625-7.230468-5.625-11.816406v-37.453125c0-4.207031-3.410157-7.617187-7.617188-7.617187h-15.234375c-4.203125 0-7.613281 3.410156-7.613281 7.617187v31.765625c0 5.625-3.082031 10.832032-8.070313 13.433594-7.175781 3.75-13.386718 9.8125-17.425781 18.265625-17.023437 35.660156-47.238281 109.488281-109.300781 171.429687-61.941406 62.0625-135.773438 92.277344-171.429688 109.304688-32.660156 15.59375-29.777343 63.585938 5.054688 74.683594 20.34375 6.480468 42.945312 9.589844 66.605469 9.160156 69.027343-1.246094 141.632812-39.960938 197.296875-95.621094 55.660156-55.660156 94.375-128.265625 95.621094-197.296875.429687-23.660156-2.679688-46.257812-9.160157-66.601562zm0 0" fill="#ffcf5d"/><path d="m443.859375 88.375c1.378906 1.09375 2.359375 2.605469 3.003906 4.632812 5.5 17.261719 8.101563 36.371094 7.730469 56.808594-1.03125 57.136719-33.445312 123.042969-86.703125 176.304688-53.261719 53.257812-119.167969 85.667968-176.308594 86.703125-16.144531.292969-29.121093 13.09375-29.871093 28.996093 9.871093 1.160157 20.046874 1.652344 30.425781 1.464844 69.027343-1.25 141.632812-39.964844 197.296875-95.625 55.660156-55.660156 94.375-128.265625 95.621094-197.296875.429687-23.65625-2.679688-46.257812-9.160157-66.601562-2.617187-8.214844-7.289062-14.644531-13.101562-19.253907-3.589844-2.851562-5.625-7.230468-5.625-11.816406v-37.453125c0-4.207031-3.410157-7.617187-7.617188-7.617187h-15.234375c-4.203125 0-7.613281 3.410156-7.613281 7.617187v37.453125c0 14.027344 6.253906 27.035156 17.15625 35.683594zm0 0" fill="#ffb545"/><path d="m89.472656 230.800781-25.617187-16.222656c-6.441407-4.078125-14.542969 1.992187-12.3125 9.238281l7.519531 24.414063c5.601562 18.203125 17.199219 34.023437 32.941406 44.945312l25.171875 16.5625c0-29.660156-1.148437-62.121093-27.703125-78.9375zm0 0" fill="#28d05b"/><path d="m204.679688 227.238281-4.0625-4.0625c-2.039063-2.039062-5.054688-2.75-7.792969-1.839843-39.664063 13.222656-68.964844 43.359374-84.730469 87.15625l14.332031 5.160156c13.730469-38.148438 37.542969-63.796875 70.816407-76.304688l.664062.664063c2.976562 2.972656 7.796875 2.972656 10.769531 0 2.976563-2.976563 2.976563-7.796875.003907-10.773438zm0 0" fill="#b66652"/><path d="m159.308594 298.679688c-14.769532-.539063-29.082032 3.308593-42.132813 10.589843-13.050781-7.28125-27.363281-11.132812-42.132812-10.589843-30.878907 1.316406-53.089844 17.878906-64.933594 39.203124-11.890625 21.671876-13.410156 48.109376-3.929687 77.28125 14.5 44.488282 52.976562 84.335938 89.53125 86.425782 3.589843.242187 7.101562.171875 10.515624-.191406 7.230469-.761719 14.667969-.761719 21.894532 0 3.414062.363281 6.925781.433593 10.515625.191406 36.554687-2.089844 75.035156-41.9375 89.535156-86.425782 9.480469-29.171874 7.957031-55.609374-3.929687-77.28125-11.84375-21.324218-34.054688-37.886718-64.933594-39.203124zm0 0" fill="#ff5368"/><path d="m224.242188 337.882812c-5.796876-10.4375-14.082032-19.726562-24.648438-26.652343 1.105469 1.671875 2.148438 3.378906 3.117188 5.121093 11.886718 21.671876 13.410156 48.109376 3.929687 77.285157-9.738281 29.867187-30.285156 57.648437-53.800781 73.308593-12.984375 8.652344-28.3125 13.113282-43.917969 13.113282h-59.964844c14.519531 12.523437 30.820313 20.621094 46.757813 21.53125 3.589844.246094 7.101562.171875 10.515625-.191406 7.28125-.769532 14.625-.765626 21.902343.003906 3.414063.359375 6.921876.429687 10.507813.1875 36.550781-2.085938 75.035156-41.9375 89.53125-86.421875 9.480469-29.175781 7.957031-55.609375-3.929687-77.285157zm0 0" fill="#d9435b"/><path d="m432.785156 313.292969c-3.203125-13.398438-15.246094-23.359375-29.625-23.359375-14.375 0-26.417968 9.960937-29.621094 23.359375-41.636718 12.675781-71.929687 51.375-71.929687 97.15625 0 56.085937 45.464844 101.550781 101.550781 101.550781 56.085938 0 101.550782-45.464844 101.550782-101.550781 0-45.78125-30.292969-84.480469-71.925782-97.15625zm0 0" fill="#ff983b"/><path d="m463.390625 328.683594c12.433594 16.851562 19.789063 37.683594 19.789063 60.234375 0 56.085937-45.46875 101.550781-101.550782 101.550781-22.550781 0-43.378906-7.355469-60.230468-19.789062 18.492187 25.0625 48.226562 41.320312 81.761718 41.320312 56.085938 0 101.550782-45.464844 101.550782-101.550781 0-33.535157-16.257813-63.269531-41.320313-81.765625zm0 0" fill="#ff7e40"/><path d="m395.542969 249.269531v70.8125c0 4.167969 3.214843 7.804688 7.382812 7.929688 4.3125.132812 7.851563-3.328125 7.851563-7.613281v-79.34375c-6.539063-4.296876-15.234375.390624-15.234375 8.214843zm0 0" fill="#b66652"/><path d="m461.175781 316.957031-7.515625-24.414062c-5.605468-18.203125-17.203125-34.027344-32.941406-44.945313l-9.941406-6.539062c-6.539063-4.300782-15.234375.386718-15.234375 8.210937v10.820313c0 20.367187 9.742187 38.511718 27.703125 49.882812l25.621094 16.226563c6.4375 4.074219 14.539062-2 12.308593-9.242188zm0 0" fill="#28d05b"/><path d="m363.738281 360.003906c0 4.207032-3.40625 7.617188-7.613281 7.617188s-7.617188-3.410156-7.617188-7.617188c0-4.207031 3.410157-7.617187 7.617188-7.617187s7.613281 3.410156 7.613281 7.617187zm0 0" fill="#ff7e40"/><path d="m384.050781 388.441406c0 4.207032-3.40625 7.617188-7.613281 7.617188s-7.617188-3.410156-7.617188-7.617188c0-4.207031 3.410157-7.617187 7.617188-7.617187s7.613281 3.410156 7.613281 7.617187zm0 0" fill="#ff7e40"/><path d="m343.429688 410.785156c0 4.207032-3.410157 7.613282-7.617188 7.613282s-7.617188-3.40625-7.617188-7.613282c0-4.207031 3.410157-7.617187 7.617188-7.617187s7.617188 3.410156 7.617188 7.617187zm0 0" fill="#ff7e40"/><path d="m292.148438 28.101562c-1.609376-3.886718-6.066407-5.730468-9.953126-4.121093l-4.5625 1.886719 3.492188-3.492188c2.976562-2.972656 2.976562-7.796875 0-10.769531-2.972656-2.972657-7.796875-2.972657-10.769531 0l-3.492188 3.492187 1.890625-4.5625c1.609375-3.886718-.238281-8.34375-4.125-9.953125-3.882812-1.613281-8.339844.234375-9.949218 4.125l-4.136719 9.984375 27.5 27.496094 9.984375-4.136719c3.882812-1.609375 5.730468-6.0625 4.121094-9.949219zm0 0" fill="#28d05b"/><path d="m212.59375 22.6875c15.863281-15.863281 39.429688-13.707031 55.292969 2.15625s18.015625 39.429688 2.152343 55.292969c-15.863281 15.863281-58.097656 32.378906-73.960937 16.515625-15.863281-15.863282.652344-58.097656 16.515625-73.964844zm0 0" fill="#ff5368"/><path d="m267.886719 24.84375c-3.808594-3.808594-8.0625-6.816406-12.546875-8.988281 6.863281 14.191406 5.222656 30.691406-6.832032 42.746093-12.054687 12.058594-39.332031 24.472657-58.699218 22.785157.535156 6.117187 2.460937 11.457031 6.269531 15.265625 15.863281 15.863281 58.097656-.652344 73.960937-16.515625 15.867188-15.863281 13.710938-39.429688-2.152343-55.292969zm0 0" fill="#d9435b"/><g fill="#ffcf5d"><path d="m243.144531 57.203125c0 4.203125-3.410156 7.613281-7.617187 7.613281-4.203125 0-7.613282-3.410156-7.613282-7.613281 0-4.207031 3.410157-7.617187 7.613282-7.617187 4.207031 0 7.617187 3.410156 7.617187 7.617187zm0 0"/><path d="m221.601562 78.742188c0 4.207031-3.410156 7.617187-7.613281 7.617187-4.207031 0-7.617187-3.410156-7.617187-7.617187 0-4.203126 3.410156-7.613282 7.617187-7.613282 4.203125 0 7.613281 3.410156 7.613281 7.613282zm0 0"/><path d="m221.601562 57.203125c0 4.203125-3.410156 7.613281-7.613281 7.613281-4.207031 0-7.617187-3.410156-7.617187-7.613281 0-4.207031 3.410156-7.617187 7.617187-7.617187 4.203125 0 7.613281 3.410156 7.613281 7.617187zm0 0"/><path d="m243.144531 78.742188c0 4.207031-3.410156 7.617187-7.617187 7.617187-4.203125 0-7.613282-3.410156-7.613282-7.617187 0-4.203126 3.410157-7.613282 7.613282-7.613282 4.207031 0 7.617187 3.410156 7.617187 7.613282zm0 0"/><path d="m264.6875 57.203125c0 4.203125-3.410156 7.613281-7.617188 7.613281-4.207031 0-7.617187-3.410156-7.617187-7.613281 0-4.207031 3.410156-7.617187 7.617187-7.617187 4.207032 0 7.617188 3.410156 7.617188 7.617187zm0 0"/><path d="m243.144531 35.660156c0 4.203125-3.410156 7.613282-7.617187 7.613282-4.203125 0-7.613282-3.410157-7.613282-7.613282 0-4.207031 3.410157-7.617187 7.613282-7.617187 4.207031 0 7.617187 3.410156 7.617187 7.617187zm0 0"/></g><path d="m187.363281 156.144531c0 28.042969-22.734375 50.773438-50.777343 50.773438-28.042969 0-50.773438-22.730469-50.773438-50.773438s22.730469-50.777343 50.773438-50.777343c28.042968 0 50.777343 22.734374 50.777343 50.777343zm0 0" fill="#5c87bd"/><path d="m160.070312 111.128906c3.671876 7.023438 5.761719 15.007813 5.761719 23.484375 0 28.039063-22.734375 50.773438-50.777343 50.773438-8.476563 0-16.460938-2.085938-23.484376-5.757813 8.476563 16.214844 25.449219 27.289063 45.015626 27.289063 28.042968 0 50.777343-22.730469 50.777343-50.773438 0-19.570312-11.074219-36.539062-27.292969-45.015625zm0 0" fill="#456ea2"/><path d="m145.058594 138.371094 2.230468-2.230469c2.972657-2.972656 2.972657-7.796875 0-10.769531-2.976562-2.972656-7.796874-2.972656-10.773437 0l-2.230469 2.230468-2.230468-2.230468c-2.972657-2.972656-7.796876-2.972656-10.769532 0-2.976562 2.976562-2.976562 7.796875 0 10.769531l2.230469 2.230469-2.230469 2.230468c-2.976562 2.976563-2.976562 7.796876 0 10.773438 1.488282 1.484375 3.4375 2.230469 5.386719 2.230469s3.898437-.746094 5.386719-2.230469l2.226562-2.230469 2.230469 2.230469c1.488281 1.484375 3.4375 2.230469 5.386719 2.230469 1.949218 0 3.898437-.746094 5.386718-2.230469 2.976563-2.976562 2.976563-7.796875 0-10.773438zm0 0" fill="#315588"/><path d="m333.621094 128.285156c-1.710938-3.804687-6.300782-5.382812-10.152344-3.785156l-4.269531 1.765625 3.269531-3.265625c2.945312-2.949219 3.246094-7.792969.390625-10.828125-2.960937-3.140625-7.90625-3.199219-10.9375-.167969l-3.492187 3.488282 1.890624-4.558594c1.609376-3.886719-.234374-8.34375-4.121093-9.953125-3.886719-1.613281-8.34375.234375-9.953125 4.121093l-4.136719 9.984376c-.996094 2.410156-.660156 4.964843.582031 6.953124 2.046875 3.277344 1.691406 7.503907-1.042968 10.238282l-.066407.0625c-3.035156 3.035156-3.203125 8.171875-.09375 11.132812 2.984375 2.84375 7.707031 2.800782 10.636719-.128906 3.179688-3.179688 7.320312-3.292969 10.605469-1.292969 1.167969.714844 2.53125 1.117188 3.964843 1.117188.972657 0 1.960938-.1875 2.914063-.582031l9.984375-4.136719c3.957031-1.640625 5.796875-6.230469 4.027344-10.164063zm0 0" fill="#28d05b"/><path d="m312.492188 132.972656c-5.5625-1.492187-11.347657.277344-15.152344 4.40625l-24.988282-7.800781-18.492187 19.410156-7.847656 29.277344c-.089844-.023437-.179688-.054687-.269531-.082031-8.125-2.179688-16.476563 2.636718-18.660157 10.761718-2.183593 8.125 2.636719 16.480469 10.761719 18.664063 8.125 2.179687 16.480469-2.636719 18.660156-10.761719.628906-2.339844.726563-4.746094.21875-7.105468 1.558594 4.703124 5.410156 8.605468 10.554688 9.984374 8.128906 2.175782 16.480468-2.644531 18.660156-10.769531.667969-2.492187.695312-5.113281.074219-7.617187.6875 2.398437 1.976562 4.65625 3.867187 6.542968 5.949219 5.949219 15.59375 5.949219 21.539063 0 5.949219-5.949218 5.949219-15.59375 0-21.542968-1.875-1.875-4.175781-3.195313-6.632813-3.890625 8.070313 2.066406 16.316406-2.75 18.476563-10.820313 2.179687-8.125-2.640625-16.480468-10.769531-18.65625zm0 0" fill="#d9435b"/><path d="m290.949219 111.441406c-11.328125-3.03125-21.671875 7.371094-18.652344 18.652344-1.761719-6.601562-7.769531-11.28125-14.714844-11.28125-3.898437 0-7.796875 1.484375-10.769531 4.460938-5.949219 5.949218-5.949219 15.59375 0 21.542968 2.054688 2.054688 4.542969 3.402344 7.175781 4.035156-8.296875-2.429687-16.816406 2.496094-19.007812 10.6875-2.175781 8.125 2.652343 16.476563 10.777343 18.652344 8.128907 2.171875 16.480469-2.652344 18.652344-10.78125.691406-2.578125.691406-5.292968 0-7.871094 1.722656 6.3125 7.460938 11.28125 14.714844 11.28125.023438 0 .046875-.003906.070312-.003906 13.394532-.058594 20.300782-16.402344 10.703126-26-1.980469-1.980468-4.316407-3.269531-6.761719-3.929687 8.109375 2.132812 16.421875-2.6875 18.589843-10.792969 2.175782-8.128906-2.652343-16.476562-10.777343-18.652344zm0 0" fill="#ff5368"/></svg>